# xmcd
#
# Track frame offsets: 
#        150
#        21193
#        44313
#        60298
#        80193
#        95943
#        116039
#        134137
#        150110
#        186933
#        206414
#        243523
#        276075
#        299797
#        317608
#
# Disc length: 4580 seconds
#
# Revision: 0
# Processed by: cddbd v1.4PL0 Copyright (c) Steve Scherf et al.
# Submitted via: ExactAudioCopy v0.90b2
#
DISCID=e111e20f
DTITLE=phive - Denz da Denz
DYEAR=2002
DGENRE=Pop
TTITLE0=Taxi - Yes it's true
TTITLE1=Blue 6 - Sweeter Love (jay's full vocal)
TTITLE2=Omnivore - On the pull
TTITLE3=Freeform Arkestra - Freeform Theme (raw deal remix)
TTITLE4=Think Tank - Hack #1 (original)
TTITLE5=Axwell - Jazz Player (mauve remix)
TTITLE6=Jenny Devivo - Season of the Witch
TTITLE7=Belushi - Evolution (72nd stranza)
TTITLE8=Liane Caroll - The Trap
TTITLE9=Shango p.a. - Control the Sound
TTITLE10=Micatone - Torture
TTITLE11=Solaris Heights - Fusique (subfushion)
TTITLE12=Freedom Satelite - Savor
TTITLE13=Trio Elétrico - Holiday in Rome
TTITLE14=Shelter a.v. - Shelter (erotic sardines mix)
EXTD=
EXTT0=
EXTT1=
EXTT2=
EXTT3=
EXTT4=
EXTT5=
EXTT6=
EXTT7=
EXTT8=
EXTT9=
EXTT10=
EXTT11=
EXTT12=
EXTT13=
EXTT14=
PLAYORDER=
